Coordinates
version=1
nRows=13
nColumns=40
inDegrees=yes

Units are S.I. units (second, meters, Newtons, ...)
Angles are in degrees.

endheader
time	pelvis_tilt	pelvis_list	pelvis_rotation	pelvis_tx	pelvis_ty	pelvis_tz	hip_flexion_r	hip_adduction_r	hip_rotation_r	knee_angle_r	knee_angle_r_beta	ankle_angle_r	subtalar_angle_r	mtp_angle_r	hip_flexion_l	hip_adduction_l	hip_rotation_l	knee_angle_l	knee_angle_l_beta	ankle_angle_l	subtalar_angle_l	mtp_angle_l	lumbar_extension	lumbar_bending	lumbar_rotation	arm_flex_r	arm_add_r	arm_rot_r	elbow_flex_r	pro_sup_r	wrist_flex_r	wrist_dev_r	arm_flex_l	arm_add_l	arm_rot_l	elbow_flex_l	pro_sup_l	wrist_flex_l	wrist_dev_l
     26.96342857	     -5.50761233	     -5.03016611	     -8.97930839	      0.75685900	      0.92437247	      0.31921855	     28.06399417	     -4.21798312	      2.65363440	     39.07776824	     39.07776824	      6.57816725	     -2.28124293	    -11.71165525	     16.56127818	     -6.05274965	    -14.18015906	     28.10185103	     28.10185103	     20.43695208	    -18.75500915	     14.01219394	    -12.37392852	     10.07141017	      2.87148391	    -17.79087154	    -11.49203363	    -13.10167099	     29.50461378	     46.39882894	      0.00000000	      0.00000000	     44.95458798	    -26.54556492	     -9.65186777	     67.68646981	     48.53693146	      0.00000000	      0.00000000
     26.98685714	     -6.19982637	     -5.18199881	    -10.15731353	      0.75441181	      0.92561736	      0.32410245	     27.25236451	     -3.40238462	      2.03368683	     32.80170220	     32.80170220	      6.52319375	      0.39074044	    -10.63385888	     16.35734586	     -6.70981272	    -15.17055984	     27.11823640	     27.11823640	     20.14198021	    -18.69804312	     14.12864700	    -11.97046538	      9.94922115	      2.91907591	    -19.48930354	    -11.12032141	    -12.94754343	     29.37163693	     46.37516336	      0.00000000	      0.00000000	     46.06554677	    -27.28622639	    -10.03198112	     68.61872167	     48.58140945	      0.00000000	      0.00000000
     27.01028571	     -6.75322582	     -5.05268624	    -11.27518666	      0.75214818	      0.92617882	      0.32929206	     26.26763014	     -2.82843499	      1.30090772	     26.71341943	     26.71341943	      6.00063989	      3.35708782	     -9.02733685	     16.16158856	     -7.10547647	    -16.23093390	     26.41375594	     26.41375594	     19.96949785	    -18.60616793	     14.12973336	    -11.66145665	      9.45307074	      3.02113333	    -20.93546255	    -10.65551740	    -12.79036505	     29.42144103	     46.34539071	      0.00000000	      0.00000000	     47.28240925	    -27.88686360	    -10.39397988	     69.70136822	     48.63238371	      0.00000000	      0.00000000
     27.03371429	     -6.88165839	     -4.90414412	    -12.19364421	      0.75060914	      0.92656546	      0.33437387	     25.14060615	     -2.61994764	     -0.58786256	     21.96244795	     21.96244795	      7.54426110	      8.66161531	     -0.99854182	     15.45606882	     -7.35043664	    -17.27033494	     25.62942845	     25.62942845	     19.25268875	    -18.62670643	     12.28714597	    -11.80790779	      8.99853205	      3.22339300	    -23.88122884	    -10.68099174	    -10.73450874	     33.64985460	     45.97899171	      0.00000000	      0.00000000	     47.84329791	    -28.03458315	    -11.61543153	     72.22100428	     48.72134341	      0.00000000	      0.00000000
     27.05714286	     -7.16712324	     -4.69474247	    -12.98921203	      0.74907023	      0.92610735	      0.33992446	     24.30796664	     -2.13208122	     -1.73264916	     17.86295210	     17.86295210	      7.65664784	     11.46608634	      4.17915200	     15.21084421	     -7.63094072	    -18.07072356	     25.39244452	     25.39244452	     19.24217146	    -18.58606777	     11.91028717	    -11.59012081	      8.46824537	      3.33564035	    -25.14372760	    -10.58798640	     -8.77068693	     34.54434403	     45.80829343	      0.00000000	      0.00000000	     48.89661990	    -28.34269112	    -11.71103203	     73.03697987	     48.71009587	      0.00000000	      0.00000000
     27.08057143	     -7.33316638	     -4.44704841	    -13.63267470	      0.74794020	      0.92530970	      0.34563045	     23.52888612	     -1.62731081	     -2.44676867	     14.61578300	     14.61578300	      6.63342615	     13.00380079	      5.73138686	     14.95377283	     -7.85309328	    -18.71251041	     25.38723312	     25.38723312	     19.44143088	    -18.55587373	     11.77157460	    -11.40591931	      7.93023196	      3.36941302	    -25.76037003	    -10.24624632	     -8.54996810	     34.61819223	     45.78698324	      0.00000000	      0.00000000	     49.75534122	    -28.56322501	    -11.85525460	     73.73193875	     48.73418628	      0.00000000	      0.00000000
     27.10400000	     -7.43675317	     -4.22265291	    -14.13868959	      0.74716671	      0.92439443	      0.35139734	     23.06428799	     -1.19744570	     -3.15028209	     12.70955737	     12.70955737	      5.99180228	     14.10501742	      7.13887786	     14.67756447	     -8.08146601	    -19.23897720	     25.48491671	     25.48491671	     19.62693786	    -18.53783762	     11.53355732	    -11.26287797	      7.45778717	      3.42254354	    -26.20721955	     -9.99459839	     -8.28835142	     34.96750899	     45.75357491	      0.00000000	      0.00000000	     50.42616335	    -28.59092667	    -12.04950260	     74.45794497	     48.75991414	      0.00000000	      0.00000000
     27.12742857	     -7.56072524	     -3.94272565	    -14.51979616	      0.74667155	      0.92330142	      0.35715326	     23.06238743	     -0.88068304	     -3.47042159	     12.12875410	     12.12875410	      5.62260618	     14.29199304	      7.53369288	     14.46918440	     -8.22307965	    -19.59870251	     25.62974373	     25.62974373	     19.86346755	    -18.57255799	     11.38725311	    -11.01760139	      7.00305204	      3.36175852	    -26.28165760	     -9.83216633	     -8.18364521	     35.15433848	     45.73897173	      0.00000000	      0.00000000	     50.95923959	    -28.67446176	    -12.19058141	     74.82346507	     48.77804715	      0.00000000	      0.00000000
     27.15085714	     -7.51403809	     -3.95381871	    -14.73816238	      0.74676992	      0.92273787	      0.36295446	     22.73810421	     -0.41452511	     -3.80083307	     11.92277677	     11.92277677	      5.37407773	     14.30708646	      7.58728521	     14.01193170	     -8.61374417	    -19.80837337	     25.80464255	     25.80464255	     20.09238764	    -18.51934673	     11.20582376	    -10.99648044	      6.87252690	      3.39539743	    -26.33555001	     -9.84157146	     -7.97518226	     35.57640379	     45.70946376	      0.00000000	      0.00000000	     51.22334513	    -28.40971218	    -12.44633797	     75.41971765	     48.80366436	      0.00000000	      0.00000000
     27.17428571	     -7.47652026	     -3.89847180	    -14.84641163	      0.74735571	      0.92211870	      0.36874214	     22.60656852	     -0.05290872	     -3.69695178	     12.32600775	     12.32600775	      4.57548012	     13.53762337	      4.44490359	     13.48636485	     -8.87413924	    -19.95809806	     25.79795646	     25.79795646	     20.17669468	    -18.51898026	     10.77901471	    -10.88320015	      6.77270892	      3.04927711	    -26.67782444	    -10.44123079	     -6.22710071	     37.60761972	     45.53656435	      0.00000000	      0.00000000	     50.73037425	    -28.18527675	    -13.81367842	     76.55514536	     48.87269547	      0.00000000	      0.00000000
     27.19771429	     -7.37542504	     -4.01850208	    -14.79212298	      0.74831317	      0.92195106	      0.37450259	     22.43924811	      0.33946097	     -3.78443932	     13.21136076	     13.21136076	      4.89974542	     12.95326233	      3.91986384	     12.82517888	     -9.23775471	    -19.86337360	     25.70708268	     25.70708268	     20.33791765	    -18.50681573	     10.78457098	    -10.83120953	      6.87688243	      3.00029731	    -26.33570659	    -10.67167289	     -6.19024259	     37.70011221	     45.53466655	      0.00000000	      0.00000000	     50.61960649	    -27.90019129	    -13.74576916	     76.59752999	     48.86587941	      0.00000000	      0.00000000
     27.22114286	     -7.24831521	     -3.94558999	    -14.71642160	      0.74953269	      0.92166250	      0.38036863	     22.61943302	      0.56555375	     -3.18964954	     14.82931756	     14.82931756	      5.40858482	     11.42783845	      2.47512709	     12.11853064	     -9.39100358	    -19.90135133	     25.52842210	     25.52842210	     20.47516264	    -18.43795427	     10.75238167	    -10.73966282	      6.72769268	      2.92163001	    -26.05940864	    -10.92293928	     -6.04988777	     37.80430262	     45.52766173	      0.00000000	      0.00000000	     50.45465274	    -27.68914740	    -13.92373374	     76.75187229	     48.87382255	      0.00000000	      0.00000000
     27.24457143	     -7.14384186	     -3.99611829	    -14.46805757	      0.75106604	      0.92162257	      0.38619577	     22.55487555	      0.91951117	     -2.54032969	     16.08295103	     16.08295103	      5.68702317	      9.68858058	      0.68325584	     11.32939884	     -9.61722557	    -19.75984086	     25.13633732	     25.13633732	     20.46759872	    -18.33530795	     10.64336026	    -10.60451210	      6.75266222	      2.66531578	    -25.60013406	    -11.31020253	     -5.85886126	     38.00180593	     45.51710558	      0.00000000	      0.00000000	     50.03654273	    -27.38025144	    -14.16349395	     76.89071696	     48.88090919	      0.00000000	      0.00000000
